# xmcd
#
# Track frame offsets: 
#        150
#        7540
#        31007
#        53505
#        71022
#        88475
#        92217
#        114112
#        130425
#        135402
#        155600
#        178885
#        196680
#        216467
#        231440
#
# Disc length: 3339 seconds
#
# Revision: 5
# Processed by: cddbd v1.5.2PL0 Copyright (c) Steve Scherf et al.
# Submitted via: ExactAudioCopyFreeDBPlugin 1.0
#
DISCID=c70d090f
DTITLE=Smoothe Da Hustler - Once Upon A Time In America
DYEAR=1996
DGENRE=Hip-Hop
TTITLE0=Once Upon A Time...
TTITLE1=Fuck Whatcha Heard Feat. Trigger Tha Gambler
TTITLE2=Dollar Bill Feat. D.V. Alias Christ
TTITLE3=Glocks On Cock
TTITLE4=Broken Language Feat. Trigger Tha Gambler
TTITLE5=Speak My Peace
TTITLE6=Neva Die Alone Feat. Dawn Tallman
TTITLE7=Food For Thoughts
TTITLE8=Family Conflicts
TTITLE9=Only Human Feat. Kovon
TTITLE10=Hustler's Theme Feat. Kovon
TTITLE11=Murdafest Feat. Trigger Tha Gambler and D.V. Alias Christ
TTITLE12=Hustlin'
TTITLE13=My Brother My Ace Feat. Trigger Tha Gambler
TTITLE14=Dedication Feat. Kovon
EXTD=YEAR: 1996
EXTT0=
EXTT1=
EXTT2=
EXTT3=
EXTT4=
EXTT5=
EXTT6=
EXTT7=
EXTT8=
EXTT9=
EXTT10=
EXTT11=
EXTT12=
EXTT13=
EXTT14=
PLAYORDER=
